<mxfile host="app.diagrams.net" modified="2023-03-31T01:51:55.749Z" agent="Mozilla/5.0 (Windows NT 10.0; Win64; x64) AppleWebKit/537.36 (KHTML, like Gecko) Chrome/111.0.0.0 Safari/537.36" etag="UE1x7YZtBgiTOHuYKp-E" version="21.1.2" type="github">
  <diagram id="AB30I_yTMFRlzNEcaLQ2" name="第 1 页">
    <mxGraphModel dx="1434" dy="764" grid="1" gridSize="10" guides="1" tooltips="1" connect="1" arrows="1" fold="1" page="1" pageScale="1" pageWidth="827" pageHeight="1169" math="0" shadow="0">
      <root>
        <mxCell id="0" />
        <mxCell id="1" parent="0" />
        <mxCell id="odfSWkH_wpB5p90hXLLc-1" style="edgeStyle=orthogonalEdgeStyle;rounded=0;orthogonalLoop=1;jettySize=auto;html=1;entryX=0.5;entryY=0.28;entryDx=0;entryDy=0;entryPerimeter=0;" edge="1" parent="1" source="T9Iu-840hSe83KmUlXSi-6" target="T9Iu-840hSe83KmUlXSi-9">
          <mxGeometry relative="1" as="geometry" />
        </mxCell>
        <mxCell id="odfSWkH_wpB5p90hXLLc-2" style="edgeStyle=orthogonalEdgeStyle;rounded=0;orthogonalLoop=1;jettySize=auto;html=1;entryX=1;entryY=0.67;entryDx=0;entryDy=0;entryPerimeter=0;" edge="1" parent="1" source="T9Iu-840hSe83KmUlXSi-6" target="T9Iu-840hSe83KmUlXSi-7">
          <mxGeometry relative="1" as="geometry" />
        </mxCell>
        <mxCell id="odfSWkH_wpB5p90hXLLc-3" style="edgeStyle=orthogonalEdgeStyle;rounded=0;orthogonalLoop=1;jettySize=auto;html=1;entryX=0.5;entryY=0;entryDx=0;entryDy=0;entryPerimeter=0;" edge="1" parent="1" source="T9Iu-840hSe83KmUlXSi-6" target="T9Iu-840hSe83KmUlXSi-10">
          <mxGeometry relative="1" as="geometry" />
        </mxCell>
        <mxCell id="T9Iu-840hSe83KmUlXSi-6" value="L3 交换机" style="sketch=0;points=[[0.015,0.015,0],[0.985,0.015,0],[0.985,0.985,0],[0.015,0.985,0],[0.25,0,0],[0.5,0,0],[0.75,0,0],[1,0.25,0],[1,0.5,0],[1,0.75,0],[0.75,1,0],[0.5,1,0],[0.25,1,0],[0,0.75,0],[0,0.5,0],[0,0.25,0]];verticalLabelPosition=bottom;html=1;verticalAlign=top;aspect=fixed;align=center;pointerEvents=1;shape=mxgraph.cisco19.rect;prIcon=l3_switch;fillColor=#FAFAFA;strokeColor=#005073;" parent="1" vertex="1">
          <mxGeometry x="389" y="140" width="50" height="50" as="geometry" />
        </mxCell>
        <mxCell id="T9Iu-840hSe83KmUlXSi-7" value="" style="points=[[0.015,0.015,0],[0.25,0,0],[0.5,0,0],[0.75,0,0],[0.985,0.015,0],[1,0.22,0],[1,0.44,0],[1,0.67,0],[0.985,0.89,0],[0,0.22,0],[0,0.44,0],[0,0.67,0],[0.015,0.89,0],[0.25,0.91,0],[0.5,0.91,0],[0.785,0.955,0]];verticalLabelPosition=bottom;sketch=0;html=1;verticalAlign=top;aspect=fixed;align=center;pointerEvents=1;shape=mxgraph.cisco19.x509_certificate;fillColor=#005073;strokeColor=none;" parent="1" vertex="1">
          <mxGeometry x="200" y="370" width="50" height="47.5" as="geometry" />
        </mxCell>
        <mxCell id="T9Iu-840hSe83KmUlXSi-9" value="" style="points=[[0,0.5,0],[0.24,0,0],[0.5,0.28,0],[0.995,0.475,0],[0.5,0.72,0],[0.24,1,0]];verticalLabelPosition=bottom;sketch=0;html=1;verticalAlign=top;aspect=fixed;align=center;pointerEvents=1;shape=mxgraph.cisco19.key;fillColor=#005073;strokeColor=none;" parent="1" vertex="1">
          <mxGeometry x="200" y="310" width="50" height="22.5" as="geometry" />
        </mxCell>
        <mxCell id="T9Iu-840hSe83KmUlXSi-10" value="数据中心" style="points=[[0.5,0,0],[1,0.34,0],[1,1],[0.75,1,0],[0.5,1,0],[0.25,1,0],[0,1,0],[0,0.34,0],[1,0.67,0],[0,0.67,0],[0.325,0,0],[0.675,0,0]];verticalLabelPosition=bottom;sketch=0;html=1;verticalAlign=top;aspect=fixed;align=center;pointerEvents=1;shape=mxgraph.cisco19.data_center;fillColor=#005073;strokeColor=none;" parent="1" vertex="1">
          <mxGeometry x="560" y="230" width="100" height="70" as="geometry" />
        </mxCell>
      </root>
    </mxGraphModel>
  </diagram>
</mxfile>
